<?xml version="1.0" encoding="utf-8"?>
<!-- Generator: Adobe Illustrator 15.1.0, SVG Export Plug-In . SVG Version: 6.00 Build 0)  -->
<!DOCTYPE svg PUBLIC "-//W3C//DTD SVG 1.1//EN" "http://www.w3.org/Graphics/SVG/1.1/DTD/svg11.dtd">
<svg version="1.1" id="Ebene_1" xmlns="http://www.w3.org/2000/svg" xmlns:xlink="http://www.w3.org/1999/xlink" x="0px" y="0px"
	 width="600px" height="700px" viewBox="0 0 600 700" enable-background="new 0 0 600 700" xml:space="preserve">
<path fill="none" stroke="#3A2583" stroke-miterlimit="10" d="M421.685,196.345c0,0-33.815,62.5-11.815,109
	s49.518,208.5-89.742,208.5c-139.258,0-111.74-162-89.74-208.5s-11.815-109-11.815-109"/>
<path fill="none" stroke="#000000" stroke-width="0.9879" stroke-miterlimit="10" d="M270.578,179.923
	c15.092-1.413,30.727-2.062,49.426-2.088c56.616-0.082,102.523,7.15,102.536,16.152c0.014,9.002-45.873,16.367-102.487,16.448
	c-56.615,0.081-102.522-7.149-102.536-16.152c-0.01-5.53,17.308-10.442,43.792-13.429"/>
<path fill="none" stroke="#000000" stroke-width="0.9879" stroke-miterlimit="10" d="M292.61,511.43c0,0-1.725,13.132,22.902,13.132
	s31.47-0.144,32.151-13.132"/>
<path fill="none" stroke="#000000" stroke-width="0.9879" stroke-miterlimit="10" d="M306.053,533.959c0,0,2.312,8.521,14.069,8.521
	s15.116-3.099,15.116-8.521c0,0,6.974,6.715,6.716,18.08c-0.258,11.363-7.491,20.663-20.406,20.663
	c-12.913,0-22.084-9.299-22.663-19.371C298.304,543.257,306.053,533.959,306.053,533.959z"/>
<line fill="none" stroke="#000000" stroke-width="0.9879" stroke-miterlimit="10" x1="307.086" y1="524.562" x2="307.086" y2="536.163"/>
<line fill="none" stroke="#000000" stroke-width="0.9879" stroke-miterlimit="10" x1="334.981" y1="524.562" x2="334.981" y2="536.163"/>
<path fill="none" stroke="#000000" stroke-width="0.9879" stroke-miterlimit="10" d="M306.325,567.425v11.734
	c0,0,3.59,5.683,13.798,5.683s14.857-5.166,14.857-5.166l0.734-12.251"/>
<path fill="none" stroke="#000000" stroke-width="0.9879" stroke-miterlimit="10" d="M306.325,578.126
	c0,0-48.313,10.074-63.554,18.081s-6.443,15.236,31.775,17.047c38.222,1.809,87.295,2.324,113.643-2.583
	c26.346-4.907,26.346-11.881-12.398-22.987c-38.744-11.104-40.074-10.073-40.074-10.073"/>
<ellipse fill="none" stroke="#000000" stroke-width="1.0118" stroke-miterlimit="10" cx="320.058" cy="253.66" rx="83.279" ry="8.95"/>
<path fill="none" stroke="#000000" stroke-width="1.1593" stroke-miterlimit="10" d="M257.839,74.601
	c4.37,25.336,21.009,180.947,21.009,180.947l-10.229-1.013L249.506,74.213c0,0-0.901-3.193,3.087-3.146
	C256.583,71.114,257.318,71.579,257.839,74.601z"/>
<path fill="none" stroke="#000000" stroke-width="0.9879" stroke-miterlimit="10" d="M326.304,258.468c0,0,8.014-9.897,15.962-9.608
	c7.946,0.289,10.861,9.608,10.861,9.608H326.304z"/>
<path fill="none" stroke="#000000" stroke-miterlimit="10" d="M196.992,223.413l58.641-48.516c0,0-19.909-23.399-44.994-9.69
	S185.097,203.448,196.992,223.413z"/>
<path fill="none" stroke="#000000" stroke-miterlimit="10" d="M255.633,174.899l2.161-2.255
	c-16.866-18.521-45.552-19.542-63.636,2.625s0.937,50.133,0.937,50.133l1.898-1.987"/>
<line fill="none" stroke="#000000" stroke-miterlimit="10" x1="213.7" y1="166.811" x2="225.883" y2="199.512"/>
<path fill="none" stroke="#000000" stroke-miterlimit="10" d="M198.825,181.832c0.729,0.146,27.058,17.68,27.058,17.68"/>
<line fill="none" stroke="#000000" stroke-miterlimit="10" x1="193.137" y1="201.083" x2="225.883" y2="201.083"/>
<line fill="none" stroke="#000000" stroke-miterlimit="10" x1="234.993" y1="165.644" x2="225.883" y2="199.512"/>
<path fill="none" stroke="#000000" stroke-width="0.9879" stroke-miterlimit="10" d="M288.553,258.468c0,0-5.032-9.132,8-9.615
	c13.031-0.482,16.667,9.615,16.667,9.615H288.553z"/>
<path fill="none" stroke="#000000" stroke-width="0.9879" stroke-miterlimit="10" d="M358.162,258.468c0,0-5.032-9.132,8-9.615
	c13.032-0.48,16.666,9.615,16.666,9.615H358.162z"/>
<path fill="none" stroke="#000000" stroke-width="0.6026" stroke-miterlimit="10" d="M248.833,255.454c0,0-1.95-6.329,5.405-5.563
	c7.354,0.767,8.428,7.604,8.428,7.604L248.833,255.454z"/>
<line fill="none" stroke="#000000" stroke-width="0.6026" stroke-miterlimit="10" x1="385.661" y1="253.652" x2="422.54" y2="138.74"/>
<circle fill="none" stroke="#000000" stroke-width="0.6026" stroke-miterlimit="10" cx="427.906" cy="124.935" r="13.806"/>
<text transform="matrix(0.9327 0 0 1 264.134 405.0432)" font-family="'Exo-Regular'" font-size="49.2454">Mojito</text>
<path fill="none" stroke="#000000" stroke-miterlimit="10" d="M427.906,138.74c0,0-4.233,9.515,0,17.174"/>
<path fill="none" stroke="#000000" stroke-miterlimit="10" d="M435.423,138.74c0,0-6.018,14.438,2.735,17.174"/>
<path fill="none" stroke="#000000" stroke-miterlimit="10" d="M399.863,147.327c0,0,13.677-1.142,17.506-8.588"/>
<path fill="none" stroke="#000000" stroke-miterlimit="10" d="M404.101,158.692c0,0,11.627-4.298,16.003-19.951"/>
</svg>
