<?xml version="1.0" encoding="utf-8"?>
<!-- Generator: Adobe Illustrator 15.1.0, SVG Export Plug-In . SVG Version: 6.00 Build 0)  -->
<!DOCTYPE svg PUBLIC "-//W3C//DTD SVG 1.1//EN" "http://www.w3.org/Graphics/SVG/1.1/DTD/svg11.dtd">
<svg version="1.1" id="Ebene_1" xmlns="http://www.w3.org/2000/svg" xmlns:xlink="http://www.w3.org/1999/xlink" x="0px" y="0px"
	 width="600px" height="700px" viewBox="0 0 600 700" enable-background="new 0 0 600 700" xml:space="preserve">
<path fill="none" stroke="#3A2583" stroke-miterlimit="10" d="M393.455,192.549c0,0-33.816,62.5-11.816,109
	s49.518,208.5-89.742,208.5c-139.258,0-111.74-162-89.74-208.5s-11.815-109-11.815-109"/>
<path fill="#FFFFFF" stroke="#000000" stroke-width="0.9879" stroke-miterlimit="10" d="M241.865,176.17
	c15.25-1.453,30.918-2.104,49.908-2.131c21.948-0.032,42.286,1.036,58.967,2.88"/>
<path fill="none" stroke="#000000" stroke-width="0.9879" stroke-miterlimit="10" d="M378.39,180.716
	c6.885,2.18,15.914,6.861,15.918,9.476c0.014,9.002-45.873,16.367-102.487,16.448c-56.615,0.081-102.522-7.149-102.536-16.152
	c-0.009-5.327,14.135-10.559,38.99-13.567"/>
<path fill="none" stroke="#000000" stroke-width="0.9879" stroke-miterlimit="10" d="M264.379,507.633
	c0,0-1.725,13.133,22.902,13.133c24.626,0,31.47-0.145,32.152-13.133"/>
<path fill="none" stroke="#000000" stroke-width="0.9879" stroke-miterlimit="10" d="M277.823,530.162c0,0,2.312,8.521,14.069,8.521
	c11.758,0,15.116-3.098,15.116-8.521c0,0,6.975,6.715,6.717,18.08c-0.258,11.363-7.492,20.664-20.407,20.664
	c-12.913,0-22.084-9.299-22.663-19.371C270.073,539.461,277.823,530.162,277.823,530.162z"/>
<line fill="none" stroke="#000000" stroke-width="0.9879" stroke-miterlimit="10" x1="278.855" y1="520.766" x2="278.855" y2="532.367"/>
<line fill="none" stroke="#000000" stroke-width="0.9879" stroke-miterlimit="10" x1="306.75" y1="520.766" x2="306.75" y2="532.367"/>
<path fill="none" stroke="#000000" stroke-width="0.9879" stroke-miterlimit="10" d="M278.094,563.629v11.734
	c0,0,3.59,5.682,13.798,5.682c10.208,0,14.858-5.166,14.858-5.166l0.734-12.25"/>
<path fill="none" stroke="#000000" stroke-width="0.9879" stroke-miterlimit="10" d="M278.094,574.33
	c0,0-48.313,10.074-63.554,18.08c-15.24,8.008-6.443,15.236,31.775,17.047c38.222,1.809,87.295,2.324,113.643-2.582
	c26.346-4.908,26.346-11.881-12.398-22.988c-38.744-11.104-40.074-10.072-40.074-10.072"/>
<ellipse fill="none" stroke="#000000" stroke-width="1.0118" stroke-miterlimit="10" cx="291.827" cy="249.864" rx="83.28" ry="8.95"/>
<path fill="none" stroke="#000000" stroke-width="0.9879" stroke-miterlimit="10" d="M218.588,71.868
	c4.97,24.782,28.126,177.996,28.126,177.996h-7.463L212.539,72.302c0,0-0.881-3.089,2.005-3.436
	C217.43,68.519,217.995,68.912,218.588,71.868z"/>
<path fill="none" stroke="#000000" stroke-width="0.9879" stroke-miterlimit="10" d="M238.483,244.756
	c-0.146,2.771-0.472,6.137-0.472,6.137l-7.307-1.52l1.813-44.254"/>
<path fill="none" stroke="#000000" stroke-width="0.9879" stroke-miterlimit="10" d="M234.853,172.344l5.956-104.173
	c0,0-0.173-2.652,1.904-2.652s3.867-0.676,3.934,2.779c0.188,9.733-3.645,86.017-6.229,136.169"/>
<path fill="none" stroke="#000000" stroke-width="0.9879" stroke-miterlimit="10" d="M264.353,246.883
	c0,0,1.571-14.179,13.742-14.179s18.887,13.425,24.112,17.16L264.353,246.883z"/>
<path fill="none" stroke="#000000" stroke-width="0.9879" stroke-miterlimit="10" d="M298.073,254.672c0,0,8.014-9.897,15.961-9.608
	s10.861,9.608,10.861,9.608H298.073z"/>
<text transform="matrix(0.9327 0 0 1 244.1794 351.2991)" font-family="'Exo-Regular'" font-size="49.2454">Pina</text>
<text transform="matrix(0.9327 0 0 1 216.6912 410.3928)" font-family="'Exo-Regular'" font-size="49.2454">Colada</text>
<path fill="none" stroke="#000000" stroke-width="1.3621" stroke-miterlimit="10" d="M361.519,205.169l48.07-45.889
	c0,0-32.135-28.071-65.766-21.269l9.201,67.521"/>
<polyline fill="none" stroke="#000000" stroke-width="1.3621" stroke-miterlimit="10" points="353.027,205.532 353.961,212.384 
	361.519,205.169 "/>
<path fill="none" stroke="#000000" stroke-width="1.3621" stroke-miterlimit="10" d="M343.824,138.012l4.502-9.977
	c0,0,5.256-9.467,37.311,2.914c0,0,16.314,7.285,22.879,14.719c6.564,7.431,7.365,7.787,7.365,7.787l-6.291,5.821"/>
<line fill="none" stroke="#000000" stroke-width="0.9879" stroke-miterlimit="10" x1="270.655" y1="86.716" x2="250.987" y2="249.864"/>
<ellipse fill="none" stroke="#000000" stroke-width="0.9879" stroke-miterlimit="10" cx="270.655" cy="75.049" rx="13.5" ry="11.667"/>
</svg>
