<?xml version="1.0" encoding="utf-8"?>
<!-- Generator: Adobe Illustrator 15.1.0, SVG Export Plug-In . SVG Version: 6.00 Build 0)  -->
<!DOCTYPE svg PUBLIC "-//W3C//DTD SVG 1.1//EN" "http://www.w3.org/Graphics/SVG/1.1/DTD/svg11.dtd">
<svg version="1.1" id="Ebene_1" xmlns="http://www.w3.org/2000/svg" xmlns:xlink="http://www.w3.org/1999/xlink" x="0px" y="0px"
	 width="600px" height="700px" viewBox="0 0 600 700" enable-background="new 0 0 600 700" xml:space="preserve">
<path fill="none" stroke="#3A2583" stroke-miterlimit="10" d="M382.512,168.699c0,0-33.815,62.5-11.815,109
	s49.518,208.5-89.742,208.5c-139.258,0-111.74-162-89.74-208.5s-11.815-109-11.815-109"/>
<path fill="#FFFFFF" stroke="#000000" stroke-width="0.9879" stroke-miterlimit="10" d="M285.169,150.198
	c0.101,0,0.198,0.001,0.299,0.001"/>
<path fill="#FFFFFF" stroke="#000000" stroke-width="0.9879" stroke-miterlimit="10" d="M255.693,150.958
	c7.598-0.296,17.362-0.758,25.509-0.769c1.453-0.002,2.898,0,4.337,0.008"/>
<path fill="none" stroke="#000000" stroke-width="0.9879" stroke-miterlimit="10" d="M296.35,150.344
	c49.436,1.095,87.376,7.815,87.388,15.999c0.013,9.001-45.873,16.366-102.488,16.447c-56.613,0.081-102.521-7.149-102.534-16.152
	c-0.007-3.998,11.062-8.243,26.089-11.102"/>
<path fill="none" stroke="#000000" stroke-width="0.9879" stroke-miterlimit="10" d="M253.437,483.784
	c0,0-1.725,13.132,22.902,13.132s31.47-0.144,32.151-13.132"/>
<path fill="none" stroke="#000000" stroke-width="0.9879" stroke-miterlimit="10" d="M266.881,506.314c0,0,2.312,8.521,14.069,8.521
	s15.116-3.099,15.116-8.521c0,0,6.974,6.715,6.716,18.08c-0.258,11.363-7.491,20.663-20.406,20.663
	c-12.913,0-22.084-9.299-22.663-19.371C259.132,515.612,266.881,506.314,266.881,506.314z"/>
<line fill="none" stroke="#000000" stroke-width="0.9879" stroke-miterlimit="10" x1="267.913" y1="496.916" x2="267.913" y2="508.518"/>
<line fill="none" stroke="#000000" stroke-width="0.9879" stroke-miterlimit="10" x1="295.808" y1="496.916" x2="295.808" y2="508.518"/>
<path fill="none" stroke="#000000" stroke-width="0.9879" stroke-miterlimit="10" d="M267.152,539.78v11.734
	c0,0,3.59,5.683,13.798,5.683s14.857-5.166,14.857-5.166l0.734-12.251"/>
<path fill="none" stroke="#000000" stroke-width="0.9879" stroke-miterlimit="10" d="M267.152,550.481
	c0,0-48.313,10.074-63.554,18.081s-6.443,15.236,31.775,17.047c38.222,1.809,87.295,2.324,113.643-2.583
	c26.346-4.907,26.346-11.881-12.398-22.987c-38.744-11.104-40.074-10.073-40.074-10.073"/>
<ellipse fill="none" stroke="#000000" stroke-width="1.0118" stroke-miterlimit="10" cx="280.885" cy="226.014" rx="83.279" ry="8.95"/>
<path fill="none" stroke="#000000" stroke-width="1.1567" stroke-miterlimit="10" d="M285.238,50.966
	c4.026,25.385,18.605,181.168,18.605,181.168l-10.162-1.132L276.953,50.482c0,0-0.855-3.203,3.111-3.11
	C284.033,47.464,284.759,47.94,285.238,50.966z"/>
<ellipse transform="matrix(-0.9612 -0.2758 0.2758 -0.9612 712.8868 316.7678)" fill="none" stroke="#000000" stroke-width="1.0663" stroke-miterlimit="10" cx="378.717" cy="108.258" rx="72.594" ry="42.092"/>
<polyline fill="none" stroke="#000000" stroke-width="1.0663" stroke-miterlimit="10" points="322.017,123.574 383.367,93.185 
	417.284,79.176 "/>
<polyline fill="none" stroke="#000000" stroke-width="1.0663" stroke-miterlimit="10" points="429.295,147.825 384.483,93.743 
	394.996,153.405 "/>
<line fill="none" stroke="#000000" stroke-width="1.0663" stroke-miterlimit="10" x1="355.168" y1="144.615" x2="383.367" y2="93.185"/>
<line fill="none" stroke="#000000" stroke-width="1.0663" stroke-miterlimit="10" x1="448.496" y1="128.271" x2="384.483" y2="93.743"/>
<line fill="none" stroke="#000000" stroke-width="1.0663" stroke-miterlimit="10" x1="440.882" y1="99.155" x2="384.483" y2="93.743"/>
<line fill="none" stroke="#000000" stroke-width="1.0663" stroke-miterlimit="10" x1="340.203" y1="64.879" x2="383.367" y2="93.185"/>
<line fill="none" stroke="#000000" stroke-width="1.0663" stroke-miterlimit="10" x1="308.159" y1="92.065" x2="382.488" y2="93.743"/>
<line fill="none" stroke="#000000" stroke-width="1.0663" stroke-miterlimit="10" x1="377.795" y1="64.879" x2="383.367" y2="93.185"/>
<line fill="none" stroke="#000000" stroke-width="1.0663" stroke-miterlimit="10" x1="340.203" y1="226.015" x2="364.166" y2="147.825"/>
<path fill="none" stroke="#000000" stroke-width="0.9879" stroke-miterlimit="10" d="M245.713,226.016c0,0,0.231-5.387,6.84-4.81
	c6.605,0.577,12.079-1.96,13.215,5.835S245.713,226.016,245.713,226.016z"/>
<path fill="none" stroke="#000000" stroke-width="0.9879" stroke-miterlimit="10" d="M274.961,230.26c0,0-2.011-9.716,7.759-9.096
	c9.768,0.62,14.621-1.784,16.375,5.879L274.961,230.26z"/>
<path fill="none" stroke="#000000" stroke-width="0.9879" stroke-miterlimit="10" d="M307.964,230.26c0,0-0.826-7.037,10.378-7.037
	c11.202,0,13.502,5.744,13.502,5.744L307.964,230.26z"/>
<path fill="none" stroke="#000000" stroke-width="0.9879" stroke-miterlimit="10" d="M229.811,228.967c0,0,0.045-5.458,7.228-5.744
	c7.185-0.288,8.675,7.037,8.675,7.037L229.811,228.967z"/>
<path fill="none" stroke="#000000" stroke-width="0.9879" stroke-miterlimit="10" d="M355.168,226.015c0,0-2.533-5.439-8.097-4.853
	c-5.562,0.588-9.263,0.389-9.193,5.879L355.168,226.015z"/>
<g>
	<path fill="none" stroke="#000000" stroke-width="1.1567" stroke-miterlimit="10" d="M235.623,182.316"/>
	<path fill="none" stroke="#000000" stroke-width="1.1567" stroke-miterlimit="10" d="M186.591,184.672
		c-12.525-6.998-21.878-19.902-21.878-34.067c0-17.77,13.106-32.804,31.159-37.816c4.166-1.157,8.598-1.78,13.188-1.78
		c24.494,0,44.35,17.729,44.35,39.598c0,12.974-5.84,23.694-16.64,30.917"/>
	<path fill="none" stroke="#000000" stroke-width="1.22" stroke-miterlimit="10" d="M186.387,187.577"/>
	<path fill="none" stroke="#000000" stroke-width="1.22" stroke-miterlimit="10" d="M187.313,188.166
		c-14.174-7.193-24.676-21.486-24.675-37.208c0-18.84,13.751-34.78,32.689-40.098c4.371-1.229,9.02-1.887,13.836-1.887
		c25.697,0,46.528,18.798,46.528,41.982c0,12.988-4.575,23.042-14.84,30.743"/>
	
		<line fill="none" stroke="#000000" stroke-width="1.1567" stroke-miterlimit="10" x1="192.241" y1="113.318" x2="221.758" y2="179.894"/>
	
		<line fill="none" stroke="#000000" stroke-width="1.1567" stroke-miterlimit="10" x1="168.634" y1="166.49" x2="249.381" y2="134.108"/>
	
		<line fill="none" stroke="#000000" stroke-width="1.1567" stroke-miterlimit="10" x1="168.634" y1="130.986" x2="247.79" y2="169.91"/>
	<path fill="none" stroke="#000000" stroke-width="1.1567" stroke-miterlimit="10" d="M190.845,177.823"/>
	
		<line fill="none" stroke="#000000" stroke-width="1.1567" stroke-miterlimit="10" x1="229.811" y1="115.605" x2="192.659" y2="174.927"/>
</g>
<text transform="matrix(1 0 0 1 213.3376 367.4436)" font-family="'Exo-Regular'" font-size="49.2454">Solero</text>
</svg>
